<svg xmlns="http://www.w3.org/2000/svg" xmlns:xlink="http://www.w3.org/1999/xlink" viewBox="0 0 650 650"><defs><style>.cls-1{fill:url(#Безымянный_градиент_263);}.cls-2{fill:url(#Безымянный_градиент_5);}.cls-18,.cls-3,.cls-40,.cls-44,.cls-45,.cls-48,.cls-5,.cls-64{fill:none;stroke-miterlimit:10;}.cls-3{stroke-width:0.93px;stroke:url(#Безымянный_градиент_10);}.cls-4{fill:url(#Безымянный_градиент_17);}.cls-5{stroke-width:2.67px;stroke:url(#Безымянный_градиент_164);}.cls-6{fill:url(#Безымянный_градиент_5-2);}.cls-7{fill:url(#Безымянный_градиент_5-3);}.cls-8{fill:url(#Безымянный_градиент_5-4);}.cls-9{fill:url(#Безымянный_градиент_5-5);}.cls-10{fill:url(#Безымянный_градиент_5-6);}.cls-11{fill:url(#Безымянный_градиент_5-7);}.cls-12{fill:url(#Безымянный_градиент_18);}.cls-13{fill:url(#Безымянный_градиент_33);}.cls-14{fill:url(#Безымянный_градиент_33-2);}.cls-15{fill:url(#Безымянный_градиент_33-3);}.cls-16{fill:url(#Безымянный_градиент_17-2);}.cls-17{fill:url(#Безымянный_градиент_33-4);}.cls-18{stroke-width:1.55px;stroke:url(#Безымянный_градиент_33-5);}.cls-19{fill:url(#Безымянный_градиент_33-6);}.cls-20{fill:url(#Безымянный_градиент_17-3);}.cls-21{fill:url(#Безымянный_градиент_33-7);}.cls-22{fill:url(#Безымянный_градиент_11);}.cls-23{fill:url(#Безымянный_градиент_16);}.cls-24{fill:url(#Безымянный_градиент_170);}.cls-25{fill:#fff;}.cls-26{fill:url(#Безымянный_градиент_170-2);}.cls-27{fill:url(#Безымянный_градиент_170-3);}.cls-28{fill:url(#Безымянный_градиент_170-4);}.cls-29{fill:url(#Безымянный_градиент_216);}.cls-30{fill:url(#Безымянный_градиент_40);}.cls-31{fill:url(#Безымянный_градиент_157);}.cls-32{fill:url(#Безымянный_градиент_50);}.cls-33{fill:url(#Безымянный_градиент_9);}.cls-34{fill:url(#Безымянный_градиент_157-2);}.cls-35{fill:url(#Безымянный_градиент_5-8);}.cls-36{fill:url(#Безымянный_градиент_271);}.cls-37{fill:url(#Безымянный_градиент_5-9);}.cls-38{fill:url(#Безымянный_градиент_157-3);}.cls-39{fill:url(#Безымянный_градиент_9-2);}.cls-40{stroke:#17ff44;stroke-width:1.95px;}.cls-41{fill:url(#Безымянный_градиент_271-2);}.cls-42{fill:url(#Безымянный_градиент_269);}.cls-43{fill:#191337;}.cls-44,.cls-45,.cls-64{stroke:#fff;}.cls-44{stroke-linecap:round;}.cls-45{stroke-width:0.76px;}.cls-46{fill:url(#Безымянный_градиент_5-10);}.cls-47{fill:url(#Безымянный_градиент_157-4);}.cls-48{stroke:#d6d9e8;stroke-width:5.49px;}.cls-49{fill:url(#Безымянный_градиент_269-2);}.cls-50{fill:url(#Безымянный_градиент_16-2);}.cls-51{fill:url(#Безымянный_градиент_16-3);}.cls-52{fill:url(#Безымянный_градиент_40-2);}.cls-53{fill:url(#Безымянный_градиент_5-11);}.cls-54{fill:url(#Безымянный_градиент_49);}.cls-55{fill:url(#Безымянный_градиент_47);}.cls-56{fill:#464b8b;}.cls-57{fill:url(#Безымянный_градиент_39);}.cls-58{fill:url(#Безымянный_градиент_157-5);}.cls-59{fill:url(#Безымянный_градиент_61);}.cls-60{fill:#d49f80;}.cls-61{fill:url(#Безымянный_градиент_65);}.cls-62{fill:url(#Безымянный_градиент_18-2);}.cls-63{fill:#211a49;}</style><linearGradient id="Безымянный_градиент_263" x1="14.06" y1="347.21" x2="640.57" y2="347.21" gradientUnits="userSpaceOnUse"><stop offset="0" stop-color="#f0f2f5"/><stop offset="0.99" stop-color="#f5f7f8"/></linearGradient><linearGradient id="Безымянный_градиент_5" x1="100.33" y1="504.55" x2="75.8" y2="318.37" gradientUnits="userSpaceOnUse"><stop offset="0" stop-color="#1f1844"/><stop offset="0.99" stop-color="#3d3c99"/></linearGradient><linearGradient id="Безымянный_градиент_10" x1="99.1" y1="499.75" x2="77.52" y2="335.99" gradientUnits="userSpaceOnUse"><stop offset="0" stop-color="#3f3d9e"/><stop offset="0.99" stop-color="#423e9f"/></linearGradient><linearGradient id="Безымянный_градиент_17" x1="111.68" y1="436.06" x2="202.72" y2="415.14" gradientUnits="userSpaceOnUse"><stop offset="0.01" stop-color="#bbc0d9"/><stop offset="1" stop-color="#d6dbf8"/></linearGradient><linearGradient id="Безымянный_градиент_164" x1="489.5" y1="261.15" x2="559.17" y2="273.9" gradientTransform="translate(-412.88 281.77) rotate(-10.18)" gradientUnits="userSpaceOnUse"><stop offset="0" stop-color="#bac6d8"/><stop offset="0.99" stop-color="#d6dbf8"/></linearGradient><linearGradient id="Безымянный_градиент_5-2" x1="98.6" y1="439.88" x2="70.68" y2="412.45" xlink:href="#Безымянный_градиент_5"/><linearGradient id="Безымянный_градиент_5-3" x1="97.71" y1="462.94" x2="65.23" y2="451.62" xlink:href="#Безымянный_градиент_5"/><linearGradient id="Безымянный_градиент_5-4" x1="100.14" y1="439.81" x2="129.68" y2="416.56" xlink:href="#Безымянный_градиент_5"/><linearGradient id="Безымянный_градиент_5-5" x1="97.98" y1="462.98" x2="126.66" y2="449.24" xlink:href="#Безымянный_градиент_5"/><linearGradient id="Безымянный_градиент_5-6" x1="103.1" y1="484.56" x2="64.92" y2="479.99" xlink:href="#Безымянный_градиент_5"/><linearGradient id="Безымянный_градиент_5-7" x1="98.86" y1="487.24" x2="124.95" y2="471.29" xlink:href="#Безымянный_градиент_5"/><linearGradient id="Безымянный_градиент_18" x1="108.65" y1="379.67" x2="99.72" y2="416.17" gradientUnits="userSpaceOnUse"><stop offset="0.01" stop-color="#3d3c99"/><stop offset="1" stop-color="#1f1844"/></linearGradient><linearGradient id="Безымянный_градиент_33" x1="1784.15" y1="324.76" x2="1795.94" y2="324.76" gradientTransform="translate(-1403.88 1472.57) rotate(-45.37)" gradientUnits="userSpaceOnUse"><stop offset="0" stop-color="#e0e4eb"/><stop offset="0.99" stop-color="#f3f6fd"/></linearGradient><linearGradient id="Безымянный_градиент_33-2" x1="2608.02" y1="977.76" x2="2619.92" y2="977.76" gradientTransform="translate(-1648.23 2649.21) rotate(-72.22)" xlink:href="#Безымянный_градиент_33"/><linearGradient id="Безымянный_градиент_33-3" x1="-1129.84" y1="1900.53" x2="-1118.03" y2="1900.53" gradientTransform="matrix(0.63, 0.78, -0.78, 0.63, 2297.64, 99.58)" xlink:href="#Безымянный_градиент_33"/><linearGradient id="Безымянный_градиент_17-2" x1="115.13" y1="461.76" x2="127.43" y2="449.13" xlink:href="#Безымянный_градиент_17"/><linearGradient id="Безымянный_градиент_33-4" x1="-1177.41" y1="2273.13" x2="-1165.32" y2="2273.13" gradientTransform="matrix(0.5, 0.87, -0.77, 0.45, 2448.14, 452.03)" xlink:href="#Безымянный_градиент_33"/><linearGradient id="Безымянный_градиент_33-5" x1="595.61" y1="241.37" x2="612.98" y2="241.37" gradientTransform="translate(-538.96 362.33) rotate(-13.38)" xlink:href="#Безымянный_градиент_33"/><linearGradient id="Безымянный_градиент_33-6" x1="3127.06" y1="1469.76" x2="3139.42" y2="1469.76" gradientTransform="matrix(0.04, -0.93, 1, 0.04, -1517.25, 3337.86)" xlink:href="#Безымянный_градиент_33"/><linearGradient id="Безымянный_градиент_17-3" x1="115.41" y1="481.57" x2="127.69" y2="467.95" xlink:href="#Безымянный_градиент_17"/><linearGradient id="Безымянный_градиент_33-7" x1="-1123.11" y1="2781.71" x2="-1109.73" y2="2781.71" gradientTransform="matrix(0.35, 0.94, -0.74, 0.28, 2566.07, 751.49)" xlink:href="#Безымянный_градиент_33"/><linearGradient id="Безымянный_градиент_11" x1="110.56" y1="379.14" x2="101.64" y2="415.64" gradientUnits="userSpaceOnUse"><stop offset="0" stop-color="#e6eaf1"/><stop offset="0.99" stop-color="#f3f6fd"/></linearGradient><linearGradient id="Безымянный_градиент_16" x1="74.07" y1="539.3" x2="142.08" y2="523.67" gradientUnits="userSpaceOnUse"><stop offset="0.11" stop-color="#8988d5"/><stop offset="0.56" stop-color="#9d9ce8"/><stop offset="1" stop-color="#a7a5ee"/></linearGradient><linearGradient id="Безымянный_градиент_170" x1="94.08" y1="222.39" x2="409.37" y2="222.39" gradientUnits="userSpaceOnUse"><stop offset="0.01" stop-color="#bbbfd9"/><stop offset="1" stop-color="#d6dbf8"/></linearGradient><linearGradient id="Безымянный_градиент_170-2" x1="404.81" y1="507.39" x2="431.22" y2="507.39" xlink:href="#Безымянный_градиент_170"/><linearGradient id="Безымянный_градиент_170-3" x1="502.69" y1="501.74" x2="529.54" y2="501.74" xlink:href="#Безымянный_градиент_170"/><linearGradient id="Безымянный_градиент_170-4" x1="466.22" y1="509.23" x2="491.15" y2="509.23" xlink:href="#Безымянный_градиент_170"/><linearGradient id="Безымянный_градиент_216" x1="467.64" y1="452.4" x2="467.64" y2="287.37" gradientUnits="userSpaceOnUse"><stop offset="0" stop-color="#201f4f"/><stop offset="0.39" stop-color="#3d3c99"/><stop offset="1" stop-color="#403da0"/></linearGradient><linearGradient id="Безымянный_градиент_40" x1="519.48" y1="373.45" x2="534.48" y2="374.95" gradientUnits="userSpaceOnUse"><stop offset="0.11" stop-color="#343381"/><stop offset="0.56" stop-color="#3d3c99"/><stop offset="1" stop-color="#403da0"/></linearGradient><linearGradient id="Безымянный_градиент_157" x1="407.66" y1="367.09" x2="398.71" y2="340.67" gradientUnits="userSpaceOnUse"><stop offset="0" stop-color="#a96e46"/><stop offset="1" stop-color="#ffd0b9"/></linearGradient><linearGradient id="Безымянный_градиент_50" x1="360.33" y1="438.91" x2="433.73" y2="438.91" gradientUnits="userSpaceOnUse"><stop offset="0" stop-color="#f7d6d2"/><stop offset="0.95" stop-color="#f7e5e3"/></linearGradient><linearGradient id="Безымянный_градиент_9" x1="379.56" y1="489.35" x2="425.89" y2="489.35" gradientUnits="userSpaceOnUse"><stop offset="0.05" stop-color="#f7e5e3"/><stop offset="1" stop-color="#f7d6d2"/></linearGradient><linearGradient id="Безымянный_градиент_157-2" x1="407.99" y1="535.88" x2="435.78" y2="535.88" xlink:href="#Безымянный_градиент_157"/><linearGradient id="Безымянный_градиент_5-8" x1="380.72" y1="339.86" x2="438.68" y2="331.88" xlink:href="#Безымянный_градиент_5"/><linearGradient id="Безымянный_градиент_271" x1="410.36" y1="336.99" x2="461.87" y2="329.9" gradientUnits="userSpaceOnUse"><stop offset="0.01" stop-color="#bbbfd9"/><stop offset="0.29" stop-color="#cacde2"/><stop offset="0.84" stop-color="#f2f3f8"/><stop offset="1" stop-color="#fff"/></linearGradient><linearGradient id="Безымянный_градиент_5-9" x1="417.88" y1="339.94" x2="500.11" y2="328.63" xlink:href="#Безымянный_градиент_5"/><linearGradient id="Безымянный_градиент_157-3" x1="318.42" y1="556.22" x2="349.1" y2="556.22" xlink:href="#Безымянный_градиент_157"/><linearGradient id="Безымянный_градиент_9-2" x1="370.31" y1="444.16" x2="401.81" y2="463.16" xlink:href="#Безымянный_градиент_9"/><linearGradient id="Безымянный_градиент_271-2" x1="259.1" y1="345.94" x2="393.65" y2="345.94" xlink:href="#Безымянный_градиент_271"/><linearGradient id="Безымянный_градиент_269" x1="375.32" y1="372.57" x2="407.72" y2="330.2" gradientUnits="userSpaceOnUse"><stop offset="0" stop-color="#fff"/><stop offset="0.16" stop-color="#f2f3f8"/><stop offset="0.71" stop-color="#cacde2"/><stop offset="0.99" stop-color="#bbbfd9"/></linearGradient><linearGradient id="Безымянный_градиент_5-10" x1="481.97" y1="345.48" x2="491.87" y2="345.48" xlink:href="#Безымянный_градиент_5"/><linearGradient id="Безымянный_градиент_157-4" x1="456.65" y1="311.51" x2="453.7" y2="357.74" xlink:href="#Безымянный_градиент_157"/><linearGradient id="Безымянный_градиент_269-2" x1="439.59" y1="365.53" x2="467.66" y2="365.53" xlink:href="#Безымянный_градиент_269"/><linearGradient id="Безымянный_градиент_16-2" x1="554.62" y1="489.9" x2="572.64" y2="489.9" xlink:href="#Безымянный_градиент_16"/><linearGradient id="Безымянный_градиент_16-3" x1="246.28" y1="489.9" x2="263.12" y2="489.9" xlink:href="#Безымянный_градиент_16"/><linearGradient id="Безымянный_градиент_40-2" x1="409.37" y1="400.77" x2="409.37" y2="383.71" xlink:href="#Безымянный_градиент_40"/><linearGradient id="Безымянный_градиент_5-11" x1="427.49" y1="302.05" x2="448.12" y2="302.05" xlink:href="#Безымянный_градиент_5"/><linearGradient id="Безымянный_градиент_49" x1="486.47" y1="250.52" x2="498.55" y2="263.97" gradientUnits="userSpaceOnUse"><stop offset="0" stop-color="#201f4f"/><stop offset="0.96" stop-color="#252557"/></linearGradient><linearGradient id="Безымянный_градиент_47" x1="471.94" y1="253.42" x2="483.56" y2="274.05" gradientUnits="userSpaceOnUse"><stop offset="0" stop-color="#29295c"/><stop offset="0.96" stop-color="#252557"/></linearGradient><linearGradient id="Безымянный_градиент_39" x1="388.5" y1="217.22" x2="502.03" y2="217.22" gradientUnits="userSpaceOnUse"><stop offset="0" stop-color="#464b8b"/><stop offset="0.28" stop-color="#393c76"/><stop offset="0.74" stop-color="#27275a"/><stop offset="1" stop-color="#201f4f"/></linearGradient><linearGradient id="Безымянный_градиент_157-5" x1="397.71" y1="271.82" x2="467.72" y2="239.41" xlink:href="#Безымянный_градиент_157"/><linearGradient id="Безымянный_градиент_61" x1="468.86" y1="254.97" x2="444.11" y2="279.26" gradientUnits="userSpaceOnUse"><stop offset="0" stop-color="#ffd0b9" stop-opacity="0"/><stop offset="1" stop-color="#a96e46"/></linearGradient><linearGradient id="Безымянный_градиент_65" x1="387.49" y1="249.46" x2="457.54" y2="217.03" gradientUnits="userSpaceOnUse"><stop offset="0" stop-color="#a04400" stop-opacity="0"/><stop offset="0.15" stop-color="#a54d0d" stop-opacity="0.09"/><stop offset="0.45" stop-color="#b0652f" stop-opacity="0.31"/><stop offset="0.87" stop-color="#c38b66" stop-opacity="0.67"/><stop offset="0.9" stop-color="#c58e6b" stop-opacity="0.7"/></linearGradient><linearGradient id="Безымянный_градиент_18-2" x1="450.56" y1="303.82" x2="491.15" y2="303.82" xlink:href="#Безымянный_градиент_18"/></defs><title>1</title><g id="Слой_2" data-name="Слой 2"><path class="cls-1" d="M619.17,359.69C564.15,247.22,406.8,82.49,202.33,82.06c-213.36-.44-234,211.17-119,270S30.19,484.19,150.39,557.86c121.66,74.56,381.67,67.56,445.67,9.56S642.94,408.28,619.17,359.69Z"/><path class="cls-2" d="M100.61,505.88s27-30.06,24.14-41.91,13.89-26.24,14.22-43.5c.37-19.55-10.07-14.32-13.69-22.68-5.36-12.39,6.57-23.36-11.46-28.1-12.31-3.24-21,3.08-19.84-12.15s-4.39-34.08-14.25-40.92c-14.09-9.78-42.76-10.54-33.1,9.16,10.15,20.71,1.2,54.81-1.16,64.15C20.47,488.62,100.61,505.88,100.61,505.88Z"/><path class="cls-3" d="M70.48,336.92c3.09,25.48,35,66.2,20.57,93.41s7.47,69.34,7.47,69.34"/><path class="cls-4" d="M182.45,448.95c-17.54,6.2,1.45,28.89-17.73,39.11s-43.77,15.4-44.9,10.44c-.08-.33-1.11-3.62-2.2-8.43-.25-1.11-.5-2.31-.75-3.57-.06-.35-.13-.71-.2-1.07a97.08,97.08,0,0,1-1.45-11.61c0-.12,0-.24,0-.36-.09-1.55-.12-3.11-.09-4.66s.11-3,.27-4.43c.57-5.52,2.15-10.61,5.38-14.26a15.27,15.27,0,0,1,2.8-2.51c13.33-9.27,18.65-4.77,18.55-18.47-.18-23.48,6.51-27,14.38-24.67s14,3,15.17-5.71-6-47.36,11.92-47.29c31,.1,15.31,39.62,12.18,46-7.5,15.37,8.1,17.78,11.81,29S200,442.75,182.45,448.95Z"/><path class="cls-5" d="M116.39,532.24s-4.71-43.22,28.23-67.44c14.88-10.94,42.54-50,40-92.28"/><path class="cls-6" d="M70.21,412c4.09-6.94,33.51,21.68,28.36,28S66.31,418.64,70.21,412Z"/><path class="cls-7" d="M62.78,451.06c.59-8.08,36.1,3.54,34.28,11.52S62.22,458.76,62.78,451.06Z"/><path class="cls-8" d="M129.82,415.39c6.29,4.93-24.76,31.67-30.3,25.74S123.83,410.7,129.82,415.39Z"/><path class="cls-9" d="M126.56,449.09c5.29,6-24.7,21-29.2,14.23S121.53,443.4,126.56,449.09Z"/><path class="cls-10" d="M65.14,480.1c-1.55-7.42,37.59-3.15,37.93,4.49S66.62,487.17,65.14,480.1Z"/><path class="cls-11" d="M124.66,471.46c4.06,6.86-24,24-27.25,16.51S120.79,464.92,124.66,471.46Z"/><path class="cls-12" d="M109.18,378.66c7.9.58-2.32,40.39-10.13,38.55S101.66,378.11,109.18,378.66Z"/><path class="cls-13" d="M73.17,410.14c4.09-6.94,33.51,21.68,28.36,28S69.27,416.75,73.17,410.14Z"/><path class="cls-14" d="M65.15,449.4c.59-8.08,36.1,3.54,34.28,11.52S64.59,457.1,65.15,449.4Z"/><path class="cls-15" d="M131,413.62c6.29,4.93-24.76,31.67-30.3,25.74S125,408.93,131,413.62Z"/><path class="cls-16" d="M116,462.83c.55-5.42,2.06-10.42,5.17-14,3.75-.75,6.9-.6,8.28,1C132.42,453.1,124.46,459.22,116,462.83Z"/><path class="cls-17" d="M128,447.82c5.29,6-24.7,21-29.2,14.23S123,442.13,128,447.82Z"/><path class="cls-18" d="M101.17,407.82s.9,20.68-1.84,38.73,4.17,48.6,15.42,58.36"/><path class="cls-19" d="M65.14,478.69c-1.55-7.42,37.59-3.15,37.93,4.49S66.62,485.75,65.14,478.69Z"/><path class="cls-20" d="M117.47,484.57c-.06-.34-.12-.7-.19-1.05a97.42,97.42,0,0,1-1.39-11.4c0-.12,0-.24,0-.35,6.39-3.54,13.21-5.32,15-2.26C133.16,473.35,125.34,480.42,117.47,484.57Z"/><path class="cls-21" d="M129.45,466.56c4.06,6.86-24,24-27.25,16.51S125.58,460,129.45,466.56Z"/><path class="cls-22" d="M111.1,378.13c7.9.58-2.32,40.39-10.13,38.55S103.57,377.58,111.1,378.13Z"/><path class="cls-23" d="M117.88,569.16H93.55a21.91,21.91,0,0,1-21.71-19l-6-44.78a5.06,5.06,0,0,1,5-5.73h69.8a5.06,5.06,0,0,1,5,5.73l-6,44.78A21.91,21.91,0,0,1,117.88,569.16Z"/><rect class="cls-24" x="94.08" y="114.14" width="315.29" height="216.5" rx="11.45" ry="11.45"/><rect class="cls-25" x="103.05" y="123.43" width="297.35" height="197.93" rx="6.84" ry="6.84"/><path class="cls-26" d="M410.92,564.31a6.11,6.11,0,0,1-6-7l14.41-106.86,11.94,1.35L417,559.07C416.53,562.08,410.92,564.31,410.92,564.31Z"/><path class="cls-27" d="M517.47,556.47,502.69,447.58l10-4,16.73,110.8c.69,3.94-2.34,4.66-5.33,5.2S518.17,560.49,517.47,556.47Z"/><path class="cls-28" d="M478.86,569.51,466.22,445.38h12.34l12.57,123.25c.28,3.83-2.64,3.68-5.52,4.11C482.41,573.22,479.17,573.84,478.86,569.51Z"/><path class="cls-29" d="M524.65,430.93c-2.61,19.29-31,22-64,23.07-1,.5-37.46.28-54.44-5.44l.59-130.62c0-11,4.71-29.23,20.81-29.5,27-.45,77.15-4.57,96.78,1.5,4.49,16.12,7.76,33.92.28,80.48C520.38,397.06,525.91,421.67,524.65,430.93Z"/><path class="cls-30" d="M517.21,298c6,18,5.24,28.4-2.75,57.47C501.16,404,523,428.83,476.83,453.26c28-1.6,45.6-5.91,47.82-22.33,1.26-9.26-4.27-33.87,0-60.52,5.51-34.29,15.79-62.31,2.12-78.87C523,287,515.19,292,517.21,298Z"/><path class="cls-31" d="M416.12,329.41s-4,18.73-3,27.47C393,366,388.74,373.16,389,374.64L384.71,357l8.43-.91,5.33-25.37C401.58,333.88,416.12,329.41,416.12,329.41Z"/><path class="cls-32" d="M433.73,404.46c-11-.72-43,.59-57.65,4.31-27.5,7-12.8,38-2.13,64.78,3.66-9,9.93-48.49,13.61-53.09C395,411.12,423.72,406.16,433.73,404.46Z"/><polygon class="cls-33" points="403.99 445.12 395.39 458.2 379.56 482.26 407.99 533.58 425.89 522.74 403.99 445.12"/><polygon class="cls-34" points="433.78 526.53 425.91 522.83 425.89 522.74 407.99 533.58 408.1 533.79 412.28 541.36 424.11 549.03 429.08 548.36 435.78 533.36 433.78 526.53"/><path class="cls-35" d="M445.68,280.25c-18.37,2.62-26.25,4-33.58,15.33C403.23,309.3,398.41,326,397.93,330a3.65,3.65,0,0,0,.54.68c3.11,3.15,16.65.77,16.65.77s-4.5,4.26-3.83,15.42c.05.92,5.33,35.69,5.33,36.4h16.61C432.34,348.28,431.29,312.79,445.68,280.25Z"/><path class="cls-36" d="M467.36,278.62l-20.5,1.46-1.18.17c-14.39,32.54-13.35,68-12.46,103.06h17.62C441.43,347.52,455.53,311.9,467.36,278.62Z"/><path class="cls-37" d="M489,338.7c6.81,3,24.57.13,31.63-1.06,0,0-1.61-39.31-13.3-52.07s-32.42-7.5-32.42-7.5l-7.58.54c-11.83,33.29-25.93,68.9-16.52,104.69h48S489.74,345.44,489,338.7Z"/><path class="cls-38" d="M329.14,541.76c-4,4.26-9.79,10.5-10.72,11.36,4.81,1.9,2.39,15.8,6.37,18s14.51-7.32,19.58-6.16c.32-3,2.77-9.4,4.7-13.84l0-.05-19.69-10Z"/><path class="cls-39" d="M501.1,400.44l-80.48-1.07s-31.81,2.89-42.36,21.27c-1.36,2.37-9.81,20.46-9.81,20.46-13.86,32.67-38.1,92.62-40.83,99.93l23.83,11.39,51.27-88.18,13.06-14s40.27-2,62.14-9.66C511.74,428.74,501.1,400.44,501.1,400.44Z"/><path class="cls-40" d="M411.5,399.09s-3.62-.45-9.27-.82"/><path class="cls-41" d="M386.59,383.51H300.11l-15.85-68.14a5.7,5.7,0,0,1,5.56-7h80.84Z"/><path class="cls-42" d="M423.17,379.25l-.91,4.06H386.59L367.9,311.92a2.84,2.84,0,0,1,2.74-3.55h0a2.84,2.84,0,0,1,2.76,2.17L384.71,357,389,374.64v0a1.45,1.45,0,0,0,0,.17l0,.06h30.6A3.59,3.59,0,0,1,423.17,379.25Z"/><circle class="cls-25" cx="331.62" cy="347.75" r="7.26"/><path class="cls-43" d="M289.37,558.89s-9.48-2.09-13.11-.79-4.56,4-4.82,6.89,2.79,7,14.57,11.36a356.38,356.38,0,0,0,36.82,10.93c3.86.78,10.4,1.94,16,1.62a7.28,7.28,0,0,0,6.55-5.55A19.9,19.9,0,0,1,346.5,580c1-2,.62-4.36,1.2-6s2-13-1.2-14.64-8.36,8.07-15.44,7.27-7.87-9.66-7.87-9.66,3.38-3.09,1.56-5.26.27-3.89-1.17-4.75-6.52,2.17-6.52,2.17-16.35,6.72-22.76,9.43C293,559,289.37,558.89,289.37,558.89Z"/><path class="cls-44" d="M275.7,567.33c21,12,45.42,12.25,45.42,12.25,6.83,1.59,13.65,6.13,22.41.92l.77-.42"/><path class="cls-43" d="M408,535.87s12.13,3.65,14.5,7.6,10.47-8.1,6.9-14.91,1.3-5.7,4.65-2.93,6.06.76,8.4,2.75,7.15,6.4,3.64,14.68-11.37,11.84-14.49,18.05-2,18.86-6.79,23.59-13.89,10.78-24.21,5.73-1.1-18.86,1.3-22.3,2.87-15.2,3-20S404.2,537.3,408,535.87Z"/><path class="cls-45" d="M433.73,527.14s6.79,2.06,4.44,10.36-10.93,14.65-11.81,23.42-.8,16.56-9.29,22.92-12.2,5.47-12.2,5.47"/><path class="cls-46" d="M491.87,360.81l-3.58-30.65s-4.55,2.25-4.94,6.59S482,358.6,482,358.6Z"/><path class="cls-47" d="M517,338.24c-.09,8.57,1.78,27.28-1.89,35.59-4.78,10.81-9.31,10.26-27.21,7.25s-46.07-12.83-55.29-12.83-15,6.67-15,6.67H388.86c-.26-1.48-.15-9.1,21.7-17.22,3.66-1.55,14.21-2.83,23.35-3.49,25.1-1.81,58,6.6,58,6.6s-2.12-15.36-2.83-22.1C495.79,341.71,510.76,339.18,517,338.24Z"/><path class="cls-48" d="M464.45,358.62s9.14-.75,9.14,6.91-9.14,7.74-9.14,7.74"/><path class="cls-49" d="M465.52,383.31H442.79L439.6,351a3,3,0,0,1,3.12-3.21h21.8a3,3,0,0,1,3.13,3.12Z"/><path class="cls-50" d="M567.95,582.21h-8.64c-2.59,0-4.69-1.41-4.69-3.16V397.58h18V579.06C572.64,580.8,570.54,582.21,567.95,582.21Z"/><path class="cls-51" d="M260.32,582.21H249.07c-1.54,0-2.79-.9-2.79-2V397.58h16.84V580.2C263.12,581.31,261.87,582.21,260.32,582.21Z"/><path class="cls-52" d="M246.57,383.34h325.6a10.45,10.45,0,0,1,10.45,10.45v8.47a0,0,0,0,1,0,0H236.12a0,0,0,0,1,0,0v-8.47A10.45,10.45,0,0,1,246.57,383.34Z"/><path class="cls-53" d="M448.12,275.51l-17.37,4.73-3.25,15.08,6.43,33.26S441.34,285.8,448.12,275.51Z"/><circle class="cls-54" cx="491.17" cy="255.76" r="12.32"/><circle class="cls-55" cx="477.53" cy="263.34" r="12.32"/><circle class="cls-56" cx="406.23" cy="206.89" r="12.32"/><circle class="cls-56" cx="406.23" cy="217.22" r="12.32"/><circle class="cls-56" cx="408.09" cy="231.53" r="12.32"/><circle class="cls-56" cx="413.85" cy="243.35" r="12.32"/><path class="cls-57" d="M510.28,217.22a56.77,56.77,0,1,1-108.76-22.81h0a56.77,56.77,0,0,1,108.76,22.82Z"/><path class="cls-58" d="M471.15,280.28s-.15-6-2.56-24.11c0-.28-.06-.54-.1-.8a40.62,40.62,0,0,1-.4-5.18c.06-.11.13-.22.18-.33,5.24-9.35,4.35-15.48.72-17.55a5.66,5.66,0,0,0-1.53-.59h0s1.44-11.89-3.41-21.47c-6.42-12.69-24.71-12.83-35.87-9.58s-20.93,16.69-17.1,29.06c1.52,4.92,3.82,9.4,4.38,13.89s-1.27,12,2.18,19.26c4.94,10.47,16.26,13.27,23.19,13.24a22.1,22.1,0,0,0,2.64-.17l.31,1.88.66,4.55L444,303.17a2.84,2.84,0,0,0,4.92,2C457,296.5,471.69,283.65,471.15,280.28Z"/><path class="cls-59" d="M468.59,256.17A40.28,40.28,0,0,1,444,279.35l-.25-1.53-.31-1.88c7.59-4.15,16.06-11.87,24.79-26.09-.06.11-.12.22-.18.33a40.62,40.62,0,0,0,.4,5.18C468.53,255.63,468.55,255.89,468.59,256.17Z"/><path class="cls-60" d="M464.06,237.74s1.95-3.67,4-1.38,0,7,0,7Z"/><path class="cls-56" d="M510.28,217.22a56.51,56.51,0,0,1-13,36.1c-19.6,0-19.93-31.54-38.57-18.16-15.92,11.42-57.23-21.17-57.23-40.75h0a56.77,56.77,0,0,1,108.76,22.82Z"/><path class="cls-61" d="M451,241.76a15.62,15.62,0,0,0,12.48-9.23,19.79,19.79,0,0,0-4.8,2.39c-10.8,7.75-33.12-4.52-46.47-19.49a22,22,0,0,0-1.86,8.78C420.09,235.61,435.57,243.39,451,241.76Z"/><circle class="cls-56" cx="416.32" cy="186.56" r="12.32"/><circle class="cls-56" cx="409.41" cy="194.22" r="12.32"/><circle class="cls-56" cx="423.73" cy="177.85" r="12.32"/><circle class="cls-56" cx="436.06" cy="172.78" r="12.32"/><circle class="cls-56" cx="451.74" cy="169.57" r="12.32"/><circle class="cls-56" cx="467.33" cy="169.57" r="12.32"/><circle class="cls-56" cx="478.85" cy="175.99" r="12.32"/><circle class="cls-56" cx="489.85" cy="181.9" r="12.32"/><circle class="cls-56" cx="498.89" cy="195.88" r="12.32"/><circle class="cls-56" cx="503.49" cy="208.59" r="12.32"/><circle class="cls-56" cx="505.39" cy="225.17" r="12.32"/><circle class="cls-56" cx="498.89" cy="241.18" r="12.32"/><path class="cls-62" d="M482.2,275.16l-9.71,1.5s-18.72,25.39-21.89,53.63a13.51,13.51,0,0,0,0,2.19c9.87-27.9,40.53-44.4,40.53-44.4Z"/><polygon class="cls-63" points="481.97 274.83 470.59 273.05 470.86 279.02 482.2 275.16 481.97 274.83"/><path class="cls-64" d="M424.87,404.27l-28.18,11.09A30.29,30.29,0,0,0,379.79,432L331.62,542.14"/></g></svg>